<svg xmlns="http://www.w3.org/2000/svg" viewBox="0 0 672 149" style="font-size: 14px; font-family: ui-monospace, SFMono-Regular, Menlo, Monaco, Consolas, 'Liberation Mono', 'Courier New', monospace;">
  <style>
    .bg { fill: #ffffff; }
    .fg { fill: #ff8000; }
    text {
      font-weight: 400;
      dominant-baseline: text-before-edge;
    }
  </style>

  <rect class="bg" width="672" height="149"/>

  <g class="fg">
    <!-- Row 1 -->
    <text x="0" y="0" textLength="8.4">█</text>
    <text x="8.4" y="0" textLength="8.4">█</text>
    <text x="16.8" y="0" textLength="8.4">█</text>
    <text x="25.2" y="0" textLength="8.4">█</text>
    <text x="33.6" y="0" textLength="8.4">█</text>
    <text x="42" y="0" textLength="8.4">█</text>
    <text x="50.4" y="0" textLength="8.4">█</text>
    <text x="58.8" y="0" textLength="8.4">█</text>
    <text x="67.2" y="0" textLength="8.4">█</text>
    <text x="75.6" y="0" textLength="8.4">█</text>
    <text x="84" y="0" textLength="8.4">█</text>
    <text x="92.4" y="0" textLength="8.4">█</text>
    <text x="100.8" y="0" textLength="8.4">█</text>
    <text x="109.2" y="0" textLength="8.4">█</text>
    <text x="117.6" y="0" textLength="8.4">█</text>
    <text x="126" y="0" textLength="8.4">█</text>
    <text x="134.4" y="0" textLength="8.4">█</text>
    <text x="142.8" y="0" textLength="8.4">█</text>
    <text x="151.2" y="0" textLength="8.4">█</text>
    <text x="159.6" y="0" textLength="8.4">█</text>
    <text x="168" y="0" textLength="8.4">█</text>
    <text x="218.4" y="0" textLength="8.4">▄</text>
    <text x="226.8" y="0" textLength="8.4">█</text>
    <text x="235.2" y="0" textLength="8.4">█</text>
    <text x="243.6" y="0" textLength="8.4">█</text>
    <text x="252" y="0" textLength="8.4">█</text>
    <text x="260.4" y="0" textLength="8.4">█</text>
    <text x="268.8" y="0" textLength="8.4">█</text>
    <text x="277.2" y="0" textLength="8.4">█</text>
    <text x="285.6" y="0" textLength="8.4">▀</text>
    <text x="327.6" y="0" textLength="8.4">▄</text>
    <text x="336" y="0" textLength="8.4">█</text>
    <text x="344.4" y="0" textLength="8.4">█</text>
    <text x="352.8" y="0" textLength="8.4">█</text>
    <text x="361.2" y="0" textLength="8.4">█</text>
    <text x="369.6" y="0" textLength="8.4">█</text>
    <text x="378" y="0" textLength="8.4">█</text>
    <text x="386.4" y="0" textLength="8.4">█</text>
    <text x="394.8" y="0" textLength="8.4">▀</text>
    <text x="420" y="0" textLength="8.4">▄</text>
    <text x="428.4" y="0" textLength="8.4">█</text>
    <text x="436.8" y="0" textLength="8.4">█</text>
    <text x="445.2" y="0" textLength="8.4">█</text>
    <text x="453.6" y="0" textLength="8.4">█</text>
    <text x="462" y="0" textLength="8.4">█</text>
    <text x="470.4" y="0" textLength="8.4">█</text>
    <text x="478.8" y="0" textLength="8.4">▀</text>
    <text x="512.4" y="0" textLength="8.4">▄</text>
    <text x="520.8" y="0" textLength="8.4">█</text>
    <text x="529.2" y="0" textLength="8.4">█</text>
    <text x="537.6" y="0" textLength="8.4">█</text>
    <text x="546" y="0" textLength="8.4">█</text>
    <text x="554.4" y="0" textLength="8.4">█</text>
    <text x="562.8" y="0" textLength="8.4">█</text>
    <text x="571.2" y="0" textLength="8.4">▀</text>
    <text x="604.8" y="0" textLength="8.4">▄</text>
    <text x="613.2" y="0" textLength="8.4">█</text>
    <text x="621.6" y="0" textLength="8.4">█</text>
    <text x="630" y="0" textLength="8.4">█</text>
    <text x="638.4" y="0" textLength="8.4">█</text>
    <text x="646.8" y="0" textLength="8.4">█</text>
    <text x="655.2" y="0" textLength="8.4">█</text>
    <text x="663.6" y="0" textLength="8.4">▀</text>

    <!-- Row 2 -->
    <text x="16.8" y="16.1" textLength="8.4">█</text>
    <text x="25.2" y="16.1" textLength="8.4">█</text>
    <text x="33.6" y="16.1" textLength="8.4">█</text>
    <text x="42" y="16.1" textLength="8.4">█</text>
    <text x="50.4" y="16.1" textLength="8.4">█</text>
    <text x="58.8" y="16.1" textLength="8.4">█</text>
    <text x="67.2" y="16.1" textLength="8.4">█</text>
    <text x="75.6" y="16.1" textLength="8.4">█</text>
    <text x="84" y="16.1" textLength="8.4">█</text>
    <text x="92.4" y="16.1" textLength="8.4">█</text>
    <text x="100.8" y="16.1" textLength="8.4">█</text>
    <text x="109.2" y="16.1" textLength="8.4">█</text>
    <text x="117.6" y="16.1" textLength="8.4">█</text>
    <text x="126" y="16.1" textLength="8.4">█</text>
    <text x="134.4" y="16.1" textLength="8.4">█</text>
    <text x="142.8" y="16.1" textLength="8.4">█</text>
    <text x="151.2" y="16.1" textLength="8.4">█</text>
    <text x="159.6" y="16.1" textLength="8.4">█</text>
    <text x="210" y="16.1" textLength="8.4">█</text>
    <text x="218.4" y="16.1" textLength="8.4">█</text>
    <text x="226.8" y="16.1" textLength="8.4">█</text>
    <text x="268.8" y="16.1" textLength="8.4">█</text>
    <text x="277.2" y="16.1" textLength="8.4">█</text>
    <text x="285.6" y="16.1" textLength="8.4">█</text>
    <text x="319.2" y="16.1" textLength="8.4">█</text>
    <text x="327.6" y="16.1" textLength="8.4">█</text>
    <text x="336" y="16.1" textLength="8.4">█</text>
    <text x="378" y="16.1" textLength="8.4">█</text>
    <text x="386.4" y="16.1" textLength="8.4">█</text>
    <text x="394.8" y="16.1" textLength="8.4">█</text>
    <text x="411.6" y="16.1" textLength="8.4">█</text>
    <text x="420" y="16.1" textLength="8.4">█</text>
    <text x="428.4" y="16.1" textLength="8.4">█</text>
    <text x="470.4" y="16.1" textLength="8.4">█</text>
    <text x="478.8" y="16.1" textLength="8.4">█</text>
    <text x="487.2" y="16.1" textLength="8.4">█</text>
    <text x="504" y="16.1" textLength="8.4">█</text>
    <text x="512.4" y="16.1" textLength="8.4">█</text>
    <text x="520.8" y="16.1" textLength="8.4">█</text>
    <text x="562.8" y="16.1" textLength="8.4">█</text>
    <text x="571.2" y="16.1" textLength="8.4">█</text>
    <text x="579.6" y="16.1" textLength="8.4">█</text>
    <text x="596.4" y="16.1" textLength="8.4">█</text>
    <text x="604.8" y="16.1" textLength="8.4">█</text>
    <text x="613.2" y="16.1" textLength="8.4">█</text>
    <text x="655.2" y="16.1" textLength="8.4">█</text>
    <text x="663.6" y="16.1" textLength="8.4">█</text>

    <!-- Row 3 -->
    <text x="25.2" y="32.2" textLength="8.4">░</text>
    <text x="33.6" y="32.2" textLength="8.4">░</text>
    <text x="42" y="32.2" textLength="8.4">░</text>
    <text x="50.4" y="32.2" textLength="8.4">░</text>
    <text x="58.8" y="32.2" textLength="8.4">░</text>
    <text x="67.2" y="32.2" textLength="8.4">░</text>
    <text x="75.6" y="32.2" textLength="8.4">░</text>
    <text x="84" y="32.2" textLength="8.4">░</text>
    <text x="92.4" y="32.2" textLength="8.4">░</text>
    <text x="100.8" y="32.2" textLength="8.4">░</text>
    <text x="109.2" y="32.2" textLength="8.4">░</text>
    <text x="117.6" y="32.2" textLength="8.4">░</text>
    <text x="126" y="32.2" textLength="8.4">░</text>
    <text x="134.4" y="32.2" textLength="8.4">░</text>
    <text x="142.8" y="32.2" textLength="8.4">░</text>
    <text x="151.2" y="32.2" textLength="8.4">░</text>
    <text x="210" y="32.2" textLength="8.4">█</text>
    <text x="218.4" y="32.2" textLength="8.4">█</text>
    <text x="226.8" y="32.2" textLength="8.4">█</text>
    <text x="268.8" y="32.2" textLength="8.4">█</text>
    <text x="277.2" y="32.2" textLength="8.4">█</text>
    <text x="285.6" y="32.2" textLength="8.4">█</text>
    <text x="319.2" y="32.2" textLength="8.4">█</text>
    <text x="327.6" y="32.2" textLength="8.4">█</text>
    <text x="336" y="32.2" textLength="8.4">█</text>
    <text x="378" y="32.2" textLength="8.4">█</text>
    <text x="386.4" y="32.2" textLength="8.4">█</text>
    <text x="394.8" y="32.2" textLength="8.4">█</text>
    <text x="411.6" y="32.2" textLength="8.4">█</text>
    <text x="420" y="32.2" textLength="8.4">█</text>
    <text x="428.4" y="32.2" textLength="8.4">█</text>
    <text x="470.4" y="32.2" textLength="8.4">█</text>
    <text x="478.8" y="32.2" textLength="8.4">█</text>
    <text x="487.2" y="32.2" textLength="8.4">█</text>
    <text x="504" y="32.2" textLength="8.4">█</text>
    <text x="512.4" y="32.2" textLength="8.4">█</text>
    <text x="520.8" y="32.2" textLength="8.4">█</text>
    <text x="562.8" y="32.2" textLength="8.4">█</text>
    <text x="571.2" y="32.2" textLength="8.4">█</text>
    <text x="579.6" y="32.2" textLength="8.4">█</text>
    <text x="596.4" y="32.2" textLength="8.4">█</text>
    <text x="604.8" y="32.2" textLength="8.4">█</text>
    <text x="613.2" y="32.2" textLength="8.4">█</text>
    <text x="655.2" y="32.2" textLength="8.4">█</text>
    <text x="663.6" y="32.2" textLength="8.4">█</text>

    <!-- Row 4 -->
    <text x="25.2" y="48.3" textLength="8.4">█</text>
    <text x="33.6" y="48.3" textLength="8.4">█</text>
    <text x="42" y="48.3" textLength="8.4">█</text>
    <text x="50.4" y="48.3" textLength="8.4">█</text>
    <text x="58.8" y="48.3" textLength="8.4">█</text>
    <text x="67.2" y="48.3" textLength="8.4">█</text>
    <text x="75.6" y="48.3" textLength="8.4">█</text>
    <text x="84" y="48.3" textLength="8.4">█</text>
    <text x="92.4" y="48.3" textLength="8.4">█</text>
    <text x="100.8" y="48.3" textLength="8.4">█</text>
    <text x="109.2" y="48.3" textLength="8.4">█</text>
    <text x="117.6" y="48.3" textLength="8.4">█</text>
    <text x="126" y="48.3" textLength="8.4">█</text>
    <text x="134.4" y="48.3" textLength="8.4">█</text>
    <text x="142.8" y="48.3" textLength="8.4">█</text>
    <text x="151.2" y="48.3" textLength="8.4">█</text>
    <text x="210" y="48.3" textLength="8.4">█</text>
    <text x="218.4" y="48.3" textLength="8.4">█</text>
    <text x="226.8" y="48.3" textLength="8.4">█</text>
    <text x="319.2" y="48.3" textLength="8.4">█</text>
    <text x="327.6" y="48.3" textLength="8.4">█</text>
    <text x="336" y="48.3" textLength="8.4">█</text>
    <text x="378" y="48.3" textLength="8.4">█</text>
    <text x="386.4" y="48.3" textLength="8.4">█</text>
    <text x="394.8" y="48.3" textLength="8.4">█</text>
    <text x="411.6" y="48.3" textLength="8.4">█</text>
    <text x="420" y="48.3" textLength="8.4">█</text>
    <text x="428.4" y="48.3" textLength="8.4">█</text>
    <text x="470.4" y="48.3" textLength="8.4">█</text>
    <text x="478.8" y="48.3" textLength="8.4">█</text>
    <text x="487.2" y="48.3" textLength="8.4">█</text>
    <text x="504" y="48.3" textLength="8.4">█</text>
    <text x="512.4" y="48.3" textLength="8.4">█</text>
    <text x="520.8" y="48.3" textLength="8.4">█</text>
    <text x="562.8" y="48.3" textLength="8.4">█</text>
    <text x="571.2" y="48.3" textLength="8.4">█</text>
    <text x="579.6" y="48.3" textLength="8.4">█</text>
    <text x="596.4" y="48.3" textLength="8.4">█</text>
    <text x="604.8" y="48.3" textLength="8.4">█</text>
    <text x="613.2" y="48.3" textLength="8.4">█</text>
    <text x="655.2" y="48.3" textLength="8.4">█</text>
    <text x="663.6" y="48.3" textLength="8.4">█</text>

    <!-- Row 5 -->
    <text x="25.2" y="64.4" textLength="8.4">░</text>
    <text x="33.6" y="64.4" textLength="8.4">░</text>
    <text x="42" y="64.4" textLength="8.4">░</text>
    <text x="50.4" y="64.4" textLength="8.4">░</text>
    <text x="58.8" y="64.4" textLength="8.4">░</text>
    <text x="67.2" y="64.4" textLength="8.4">░</text>
    <text x="75.6" y="64.4" textLength="8.4">░</text>
    <text x="84" y="64.4" textLength="8.4">░</text>
    <text x="92.4" y="64.4" textLength="8.4">░</text>
    <text x="100.8" y="64.4" textLength="8.4">░</text>
    <text x="109.2" y="64.4" textLength="8.4">░</text>
    <text x="117.6" y="64.4" textLength="8.4">░</text>
    <text x="126" y="64.4" textLength="8.4">░</text>
    <text x="134.4" y="64.4" textLength="8.4">░</text>
    <text x="142.8" y="64.4" textLength="8.4">░</text>
    <text x="151.2" y="64.4" textLength="8.4">░</text>
    <text x="193.2" y="64.4" textLength="8.4">▀</text>
    <text x="201.6" y="64.4" textLength="8.4">█</text>
    <text x="210" y="64.4" textLength="8.4">█</text>
    <text x="218.4" y="64.4" textLength="8.4">█</text>
    <text x="226.8" y="64.4" textLength="8.4">█</text>
    <text x="235.2" y="64.4" textLength="8.4">█</text>
    <text x="243.6" y="64.4" textLength="8.4">█</text>
    <text x="252" y="64.4" textLength="8.4">█</text>
    <text x="260.4" y="64.4" textLength="8.4">█</text>
    <text x="268.8" y="64.4" textLength="8.4">█</text>
    <text x="277.2" y="64.4" textLength="8.4">█</text>
    <text x="285.6" y="64.4" textLength="8.4">█</text>
    <text x="293.9999999999999" y="64.4" textLength="8.4">▀</text>
    <text x="302.4" y="64.4" textLength="8.4">▀</text>
    <text x="310.8" y="64.4" textLength="8.4">█</text>
    <text x="319.2" y="64.4" textLength="8.4">█</text>
    <text x="327.6" y="64.4" textLength="8.4">█</text>
    <text x="336" y="64.4" textLength="8.4">█</text>
    <text x="344.4" y="64.4" textLength="8.4">█</text>
    <text x="352.8" y="64.4" textLength="8.4">█</text>
    <text x="361.2" y="64.4" textLength="8.4">█</text>
    <text x="369.6" y="64.4" textLength="8.4">█</text>
    <text x="378" y="64.4" textLength="8.4">█</text>
    <text x="386.4" y="64.4" textLength="8.4">█</text>
    <text x="394.8" y="64.4" textLength="8.4">█</text>
    <text x="403.20000000000005" y="64.4" textLength="8.4">▀</text>
    <text x="411.6" y="64.4" textLength="8.4">█</text>
    <text x="420" y="64.4" textLength="8.4">█</text>
    <text x="428.4" y="64.4" textLength="8.4">█</text>
    <text x="470.4" y="64.4" textLength="8.4">█</text>
    <text x="478.8" y="64.4" textLength="8.4">█</text>
    <text x="487.2" y="64.4" textLength="8.4">█</text>
    <text x="504" y="64.4" textLength="8.4">█</text>
    <text x="512.4" y="64.4" textLength="8.4">█</text>
    <text x="520.8" y="64.4" textLength="8.4">█</text>
    <text x="562.8" y="64.4" textLength="8.4">█</text>
    <text x="571.2" y="64.4" textLength="8.4">█</text>
    <text x="579.6" y="64.4" textLength="8.4">█</text>
    <text x="596.4" y="64.4" textLength="8.4">█</text>
    <text x="604.8" y="64.4" textLength="8.4">█</text>
    <text x="613.2" y="64.4" textLength="8.4">█</text>
    <text x="655.2" y="64.4" textLength="8.4">█</text>
    <text x="663.6" y="64.4" textLength="8.4">█</text>

    <!-- Row 6 -->
    <text x="25.2" y="80.5" textLength="8.4">█</text>
    <text x="33.6" y="80.5" textLength="8.4">█</text>
    <text x="42" y="80.5" textLength="8.4">█</text>
    <text x="50.4" y="80.5" textLength="8.4">█</text>
    <text x="58.8" y="80.5" textLength="8.4">█</text>
    <text x="67.2" y="80.5" textLength="8.4">█</text>
    <text x="75.6" y="80.5" textLength="8.4">█</text>
    <text x="84" y="80.5" textLength="8.4">█</text>
    <text x="92.4" y="80.5" textLength="8.4">█</text>
    <text x="100.8" y="80.5" textLength="8.4">█</text>
    <text x="109.2" y="80.5" textLength="8.4">█</text>
    <text x="117.6" y="80.5" textLength="8.4">█</text>
    <text x="126" y="80.5" textLength="8.4">█</text>
    <text x="134.4" y="80.5" textLength="8.4">█</text>
    <text x="142.8" y="80.5" textLength="8.4">█</text>
    <text x="151.2" y="80.5" textLength="8.4">█</text>
    <text x="268.8" y="80.5" textLength="8.4">█</text>
    <text x="277.2" y="80.5" textLength="8.4">█</text>
    <text x="285.6" y="80.5" textLength="8.4">█</text>
    <text x="319.2" y="80.5" textLength="8.4">█</text>
    <text x="327.6" y="80.5" textLength="8.4">█</text>
    <text x="336" y="80.5" textLength="8.4">█</text>
    <text x="411.6" y="80.5" textLength="8.4">█</text>
    <text x="420" y="80.5" textLength="8.4">█</text>
    <text x="428.4" y="80.5" textLength="8.4">█</text>
    <text x="470.4" y="80.5" textLength="8.4">█</text>
    <text x="478.8" y="80.5" textLength="8.4">█</text>
    <text x="487.2" y="80.5" textLength="8.4">█</text>
    <text x="504" y="80.5" textLength="8.4">█</text>
    <text x="512.4" y="80.5" textLength="8.4">█</text>
    <text x="520.8" y="80.5" textLength="8.4">█</text>
    <text x="562.8" y="80.5" textLength="8.4">█</text>
    <text x="571.2" y="80.5" textLength="8.4">█</text>
    <text x="579.6" y="80.5" textLength="8.4">█</text>
    <text x="596.4" y="80.5" textLength="8.4">█</text>
    <text x="604.8" y="80.5" textLength="8.4">█</text>
    <text x="613.2" y="80.5" textLength="8.4">█</text>
    <text x="655.2" y="80.5" textLength="8.4">█</text>
    <text x="663.6" y="80.5" textLength="8.4">█</text>

    <!-- Row 7 -->
    <text x="25.2" y="96.6" textLength="8.4">░</text>
    <text x="33.6" y="96.6" textLength="8.4">░</text>
    <text x="42" y="96.6" textLength="8.4">░</text>
    <text x="50.4" y="96.6" textLength="8.4">░</text>
    <text x="58.8" y="96.6" textLength="8.4">░</text>
    <text x="67.2" y="96.6" textLength="8.4">░</text>
    <text x="75.6" y="96.6" textLength="8.4">░</text>
    <text x="84" y="96.6" textLength="8.4">░</text>
    <text x="92.4" y="96.6" textLength="8.4">░</text>
    <text x="100.8" y="96.6" textLength="8.4">░</text>
    <text x="109.2" y="96.6" textLength="8.4">░</text>
    <text x="117.6" y="96.6" textLength="8.4">░</text>
    <text x="126" y="96.6" textLength="8.4">░</text>
    <text x="134.4" y="96.6" textLength="8.4">░</text>
    <text x="142.8" y="96.6" textLength="8.4">░</text>
    <text x="151.2" y="96.6" textLength="8.4">░</text>
    <text x="268.8" y="96.6" textLength="8.4">█</text>
    <text x="277.2" y="96.6" textLength="8.4">█</text>
    <text x="285.6" y="96.6" textLength="8.4">█</text>
    <text x="319.2" y="96.6" textLength="8.4">█</text>
    <text x="327.6" y="96.6" textLength="8.4">█</text>
    <text x="336" y="96.6" textLength="8.4">█</text>
    <text x="411.6" y="96.6" textLength="8.4">█</text>
    <text x="420" y="96.6" textLength="8.4">█</text>
    <text x="428.4" y="96.6" textLength="8.4">█</text>
    <text x="470.4" y="96.6" textLength="8.4">█</text>
    <text x="478.8" y="96.6" textLength="8.4">█</text>
    <text x="487.2" y="96.6" textLength="8.4">█</text>
    <text x="504" y="96.6" textLength="8.4">█</text>
    <text x="512.4" y="96.6" textLength="8.4">█</text>
    <text x="520.8" y="96.6" textLength="8.4">█</text>
    <text x="562.8" y="96.6" textLength="8.4">█</text>
    <text x="571.2" y="96.6" textLength="8.4">█</text>
    <text x="579.6" y="96.6" textLength="8.4">█</text>
    <text x="596.4" y="96.6" textLength="8.4">█</text>
    <text x="604.8" y="96.6" textLength="8.4">█</text>
    <text x="613.2" y="96.6" textLength="8.4">█</text>
    <text x="655.2" y="96.6" textLength="8.4">█</text>
    <text x="663.6" y="96.6" textLength="8.4">█</text>

    <!-- Row 8 -->
    <text x="16.8" y="112.7" textLength="8.4">█</text>
    <text x="25.2" y="112.7" textLength="8.4">█</text>
    <text x="33.6" y="112.7" textLength="8.4">█</text>
    <text x="42" y="112.7" textLength="8.4">█</text>
    <text x="50.4" y="112.7" textLength="8.4">█</text>
    <text x="58.8" y="112.7" textLength="8.4">█</text>
    <text x="67.2" y="112.7" textLength="8.4">█</text>
    <text x="75.6" y="112.7" textLength="8.4">█</text>
    <text x="84" y="112.7" textLength="8.4">█</text>
    <text x="92.4" y="112.7" textLength="8.4">█</text>
    <text x="100.8" y="112.7" textLength="8.4">█</text>
    <text x="109.2" y="112.7" textLength="8.4">█</text>
    <text x="117.6" y="112.7" textLength="8.4">█</text>
    <text x="126" y="112.7" textLength="8.4">█</text>
    <text x="134.4" y="112.7" textLength="8.4">█</text>
    <text x="142.8" y="112.7" textLength="8.4">█</text>
    <text x="151.2" y="112.7" textLength="8.4">█</text>
    <text x="159.6" y="112.7" textLength="8.4">█</text>
    <text x="218.4" y="112.7" textLength="8.4">▄</text>
    <text x="226.8" y="112.7" textLength="8.4">█</text>
    <text x="235.2" y="112.7" textLength="8.4">█</text>
    <text x="268.8" y="112.7" textLength="8.4">█</text>
    <text x="277.2" y="112.7" textLength="8.4">█</text>
    <text x="285.6" y="112.7" textLength="8.4">█</text>
    <text x="319.2" y="112.7" textLength="8.4">█</text>
    <text x="327.6" y="112.7" textLength="8.4">█</text>
    <text x="336" y="112.7" textLength="8.4">█</text>
    <text x="411.6" y="112.7" textLength="8.4">█</text>
    <text x="420" y="112.7" textLength="8.4">█</text>
    <text x="428.4" y="112.7" textLength="8.4">█</text>
    <text x="470.4" y="112.7" textLength="8.4">█</text>
    <text x="478.8" y="112.7" textLength="8.4">█</text>
    <text x="487.2" y="112.7" textLength="8.4">█</text>
    <text x="504" y="112.7" textLength="8.4">█</text>
    <text x="512.4" y="112.7" textLength="8.4">█</text>
    <text x="520.8" y="112.7" textLength="8.4">█</text>
    <text x="562.8" y="112.7" textLength="8.4">█</text>
    <text x="571.2" y="112.7" textLength="8.4">█</text>
    <text x="579.6" y="112.7" textLength="8.4">█</text>
    <text x="596.4" y="112.7" textLength="8.4">█</text>
    <text x="604.8" y="112.7" textLength="8.4">█</text>
    <text x="613.2" y="112.7" textLength="8.4">█</text>
    <text x="621.6" y="112.7" textLength="8.4">█</text>
    <text x="655.2" y="112.7" textLength="8.4">█</text>
    <text x="663.6" y="112.7" textLength="8.4">█</text>

    <!-- Row 9 -->
    <text x="0" y="128.8" textLength="8.4">█</text>
    <text x="8.4" y="128.8" textLength="8.4">█</text>
    <text x="16.8" y="128.8" textLength="8.4">█</text>
    <text x="25.2" y="128.8" textLength="8.4">█</text>
    <text x="33.6" y="128.8" textLength="8.4">█</text>
    <text x="42" y="128.8" textLength="8.4">█</text>
    <text x="50.4" y="128.8" textLength="8.4">█</text>
    <text x="58.8" y="128.8" textLength="8.4">█</text>
    <text x="67.2" y="128.8" textLength="8.4">█</text>
    <text x="75.6" y="128.8" textLength="8.4">█</text>
    <text x="84" y="128.8" textLength="8.4">█</text>
    <text x="92.4" y="128.8" textLength="8.4">█</text>
    <text x="100.8" y="128.8" textLength="8.4">█</text>
    <text x="109.2" y="128.8" textLength="8.4">█</text>
    <text x="117.6" y="128.8" textLength="8.4">█</text>
    <text x="126" y="128.8" textLength="8.4">█</text>
    <text x="134.4" y="128.8" textLength="8.4">█</text>
    <text x="142.8" y="128.8" textLength="8.4">█</text>
    <text x="151.2" y="128.8" textLength="8.4">█</text>
    <text x="159.6" y="128.8" textLength="8.4">█</text>
    <text x="168" y="128.8" textLength="8.4">█</text>
    <text x="201.6" y="128.8" textLength="8.4">▄</text>
    <text x="210" y="128.8" textLength="8.4">█</text>
    <text x="218.4" y="128.8" textLength="8.4">█</text>
    <text x="226.8" y="128.8" textLength="8.4">█</text>
    <text x="235.2" y="128.8" textLength="8.4">█</text>
    <text x="243.6" y="128.8" textLength="8.4">█</text>
    <text x="252" y="128.8" textLength="8.4">█</text>
    <text x="260.4" y="128.8" textLength="8.4">█</text>
    <text x="268.8" y="128.8" textLength="8.4">█</text>
    <text x="277.2" y="128.8" textLength="8.4">█</text>
    <text x="285.6" y="128.8" textLength="8.4">▀</text>
    <text x="302.4" y="128.8" textLength="8.4">▄</text>
    <text x="310.8" y="128.8" textLength="8.4">█</text>
    <text x="319.2" y="128.8" textLength="8.4">█</text>
    <text x="327.6" y="128.8" textLength="8.4">█</text>
    <text x="336" y="128.8" textLength="8.4">█</text>
    <text x="344.4" y="128.8" textLength="8.4">█</text>
    <text x="352.8" y="128.8" textLength="8.4">█</text>
    <text x="361.2" y="128.8" textLength="8.4">█</text>
    <text x="369.6" y="128.8" textLength="8.4">█</text>
    <text x="378" y="128.8" textLength="8.4">█</text>
    <text x="386.4" y="128.8" textLength="8.4">█</text>
    <text x="394.8" y="128.8" textLength="8.4">▀</text>
    <text x="411.6" y="128.8" textLength="8.4">▄</text>
    <text x="420" y="128.8" textLength="8.4">█</text>
    <text x="428.4" y="128.8" textLength="8.4">█</text>
    <text x="436.8" y="128.8" textLength="8.4">█</text>
    <text x="445.2" y="128.8" textLength="8.4">█</text>
    <text x="453.6" y="128.8" textLength="8.4">█</text>
    <text x="462" y="128.8" textLength="8.4">█</text>
    <text x="470.4" y="128.8" textLength="8.4">█</text>
    <text x="478.8" y="128.8" textLength="8.4">▀</text>
    <text x="504" y="128.8" textLength="8.4">▄</text>
    <text x="512.4" y="128.8" textLength="8.4">█</text>
    <text x="520.8" y="128.8" textLength="8.4">█</text>
    <text x="529.2" y="128.8" textLength="8.4">█</text>
    <text x="537.6" y="128.8" textLength="8.4">█</text>
    <text x="546" y="128.8" textLength="8.4">█</text>
    <text x="554.4" y="128.8" textLength="8.4">█</text>
    <text x="562.8" y="128.8" textLength="8.4">█</text>
    <text x="571.2" y="128.8" textLength="8.4">▀</text>
    <text x="596.4" y="128.8" textLength="8.4">▄</text>
    <text x="604.8" y="128.8" textLength="8.4">█</text>
    <text x="613.2" y="128.8" textLength="8.4">█</text>
    <text x="621.6" y="128.8" textLength="8.4">█</text>
    <text x="630" y="128.8" textLength="8.4">█</text>
    <text x="638.4" y="128.8" textLength="8.4">█</text>
    <text x="646.8" y="128.8" textLength="8.4">█</text>
    <text x="655.2" y="128.8" textLength="8.4">█</text>
    <text x="663.6" y="128.8" textLength="8.4">▀</text>
  </g>
</svg>
